<svg width="162" height="40" viewBox="0 0 162 40" fill="none" xmlns="http://www.w3.org/2000/svg">
<path d="M162 23.3885V28.7294H157V23.3885H162Z" fill="#4FFF4B"/>
<path d="M20.412 1.73434V7.00262H13.716V28.7294H7.56001V7.00262H0.864014V1.73434H20.412Z" fill="white"/>
<path d="M35.8495 7.04107C38.1535 7.04107 40.0015 7.86144 41.3935 9.50216C42.7855 11.1173 43.4815 13.3476 43.4815 16.1933V28.7294H37.3615V17.0777C37.3615 15.6421 37.0135 14.5269 36.3175 13.7322C35.6215 12.9374 34.6855 12.5401 33.5095 12.5401C32.3335 12.5401 31.3975 12.9374 30.7015 13.7322C30.0055 14.5269 29.6575 15.6421 29.6575 17.0777V28.7294H23.5015V0.273071H29.6575V10.1559C30.2815 9.20734 31.1335 8.45107 32.2135 7.88707C33.2935 7.32307 34.5055 7.04107 35.8495 7.04107Z" fill="white"/>
<path d="M66.6954 17.6545C66.6954 18.2698 66.6594 18.9107 66.5874 19.5773H52.6554C52.7514 20.9103 53.1474 21.9358 53.8434 22.6536C54.5634 23.3458 55.4394 23.6919 56.4714 23.6919C58.0074 23.6919 59.0754 22.9997 59.6754 21.6153H66.2274C65.8914 23.0253 65.2794 24.2943 64.3914 25.4223C63.5274 26.5503 62.4354 27.4348 61.1154 28.0757C59.7954 28.7166 58.3194 29.0371 56.6874 29.0371C54.7194 29.0371 52.9674 28.5884 51.4314 27.6912C49.8954 26.7939 48.6954 25.5121 47.8314 23.8457C46.9674 22.1793 46.5354 20.231 46.5354 18.0006C46.5354 15.7703 46.9554 13.8219 47.7954 12.1555C48.6594 10.4892 49.8594 9.20734 51.3954 8.31007C52.9314 7.4128 54.6954 6.96416 56.6874 6.96416C58.6314 6.96416 60.3594 7.39998 61.8714 8.27162C63.3834 9.14325 64.5594 10.3866 65.3994 12.0017C66.2634 13.6168 66.6954 15.5011 66.6954 17.6545ZM60.3954 15.9241C60.3954 14.7961 60.0354 13.8988 59.3154 13.2323C58.5954 12.5657 57.6954 12.2324 56.6154 12.2324C55.5834 12.2324 54.7074 12.5529 53.9874 13.1938C53.2914 13.8347 52.8594 14.7448 52.6914 15.9241H60.3954Z" fill="white"/>
<path d="M92.8719 14.8858C94.3359 15.2191 95.5119 16.001 96.3999 17.2315C97.2879 18.4364 97.7319 19.8208 97.7319 21.3846C97.7319 23.6406 96.9879 25.4352 95.4999 26.7683C94.0359 28.0757 91.9839 28.7294 89.3439 28.7294H77.5719V1.73434H88.9479C91.5159 1.73434 93.5199 2.36243 94.9599 3.61862C96.4239 4.8748 97.1559 6.57962 97.1559 8.73307C97.1559 10.3225 96.7599 11.6428 95.9679 12.6939C95.1999 13.745 94.1679 14.4756 92.8719 14.8858ZM83.7279 12.6554H87.7599C88.7679 12.6554 89.5359 12.4247 90.0639 11.9633C90.6159 11.4762 90.8919 10.7712 90.8919 9.84825C90.8919 8.92534 90.6159 8.22034 90.0639 7.73325C89.5359 7.24616 88.7679 7.00262 87.7599 7.00262H83.7279V12.6554ZM88.2639 23.4227C89.2959 23.4227 90.0879 23.1792 90.6399 22.6921C91.2159 22.1793 91.5039 21.4487 91.5039 20.5002C91.5039 19.5516 91.2039 18.8082 90.6039 18.2698C90.0279 17.7314 89.2239 17.4623 88.1919 17.4623H83.7279V23.4227H88.2639Z" fill="white"/>
<path d="M107.458 0.273071V28.7294H101.302V0.273071H107.458Z" fill="white"/>
<path d="M121.064 29.0371C119.096 29.0371 117.32 28.5884 115.736 27.6912C114.176 26.7939 112.94 25.5121 112.028 23.8457C111.14 22.1793 110.696 20.231 110.696 18.0006C110.696 15.7959 111.152 13.8603 112.064 12.194C112.976 10.502 114.224 9.20734 115.808 8.31007C117.392 7.4128 119.168 6.96416 121.136 6.96416C123.104 6.96416 124.88 7.4128 126.464 8.31007C128.048 9.20734 129.296 10.502 130.208 12.194C131.12 13.8603 131.576 15.7959 131.576 18.0006C131.576 20.2053 131.108 22.1537 130.172 23.8457C129.26 25.5121 128 26.7939 126.392 27.6912C124.808 28.5884 123.032 29.0371 121.064 29.0371ZM121.064 23.3458C122.24 23.3458 123.236 22.8843 124.052 21.9614C124.892 21.0385 125.312 19.7183 125.312 18.0006C125.312 16.283 124.904 14.9627 124.088 14.0398C123.296 13.1169 122.312 12.6554 121.136 12.6554C119.936 12.6554 118.94 13.1169 118.148 14.0398C117.356 14.9371 116.96 16.2573 116.96 18.0006C116.96 19.7183 117.344 21.0385 118.112 21.9614C118.904 22.8843 119.888 23.3458 121.064 23.3458Z" fill="white"/>
<path d="M142.473 6.96416C143.889 6.96416 145.125 7.2718 146.181 7.88707C147.261 8.50234 148.089 9.30989 148.665 10.3097V7.2718H154.821V28.691C154.821 30.665 154.449 32.4467 153.705 34.0362C152.985 35.6513 151.869 36.9331 150.357 37.8816C148.869 38.8302 147.009 39.3044 144.777 39.3044C141.801 39.3044 139.389 38.5482 137.541 37.0356C135.693 35.5487 134.637 33.5234 134.373 30.9598H140.457C140.649 31.7802 141.105 32.4211 141.825 32.8825C142.545 33.3696 143.433 33.6132 144.489 33.6132C145.761 33.6132 146.769 33.2158 147.513 32.4211C148.281 31.652 148.665 30.4086 148.665 28.691V25.6531C148.065 26.6529 147.237 27.4733 146.181 28.1142C145.125 28.7294 143.889 29.0371 142.473 29.0371C140.817 29.0371 139.317 28.5884 137.973 27.6912C136.629 26.7683 135.561 25.4736 134.769 23.8073C134.001 22.1153 133.617 20.1669 133.617 17.9622C133.617 15.7574 134.001 13.8219 134.769 12.1555C135.561 10.4892 136.629 9.20734 137.973 8.31007C139.317 7.4128 140.817 6.96416 142.473 6.96416ZM148.665 18.0006C148.665 16.3599 148.233 15.0653 147.369 14.1167C146.529 13.1682 145.497 12.6939 144.273 12.6939C143.049 12.6939 142.005 13.1682 141.141 14.1167C140.301 15.0396 139.881 16.3214 139.881 17.9622C139.881 19.6029 140.301 20.9103 141.141 21.8845C142.005 22.8331 143.049 23.3073 144.273 23.3073C145.497 23.3073 146.529 22.8331 147.369 21.8845C148.233 20.936 148.665 19.6413 148.665 18.0006Z" fill="white"/>
</svg>
